<svg width="32" height="32" viewBox="0 0 32 32" fill="none" xmlns="http://www.w3.org/2000/svg">
<path fill-rule="evenodd" clip-rule="evenodd" d="M29.9693 16.9343C29.9897 16.6255 30 16.3139 30 16C30 8.26801 23.732 2 16 2C8.26801 2 2 8.26801 2 16C2 16.3346 2.01174 16.6665 2.03483 16.9953L16.0009 5.29395L29.9693 16.9343ZM28.5825 22.1457L16.0009 11.4704L3.43747 22.1863C4.22802 23.7886 5.3161 25.2179 6.62958 26.4019L16.0028 18.4707L25.5427 26.244C26.7901 25.0814 27.8249 23.6938 28.5825 22.1457ZM21.2613 28.9778L16.0028 24.6472L10.7424 28.9793C12.3657 29.6375 14.1405 30 16 30C17.8609 30 19.637 29.6369 21.2613 28.9778Z" fill="currentColor"/>
</svg>
