<svg width="32" height="32" viewBox="0 0 32 32" fill="none" xmlns="http://www.w3.org/2000/svg">
<path fill-rule="evenodd" clip-rule="evenodd" d="M27.2574 24.3244C28.9808 21.9977 30 19.1179 30 16C30 13.1238 29.1326 10.4501 27.6452 8.22633L19.3613 16.4683L27.2574 24.3244ZM23.8326 27.6056L16 19.8126L8.16738 27.6056C10.4028 29.1172 13.0983 30 16 30C18.9017 30 21.5972 29.1172 23.8326 27.6056ZM4.7426 24.3244C3.0192 21.9977 2 19.1179 2 16C2 13.1238 2.86735 10.4501 4.35477 8.22633L12.6387 16.4683L4.7426 24.3244ZM7.6186 4.78503L16 13.124L24.3814 4.78503C22.0448 3.03594 19.1434 2 16 2C12.8566 2 9.95525 3.03594 7.6186 4.78503Z" fill="currentColor"/>
</svg>
