<?xml version="1.0" encoding="UTF-8"?>
<svg id="Layer_1" data-name="Layer 1" xmlns="http://www.w3.org/2000/svg" viewBox="0 0 32 32">
  <defs>
    <style>
      .cls-1 {
        stroke-width: 0px;
      }
    </style>
  </defs>
  <path class="cls-1" d="m22.24,2.88v3.94c-1.71-1.92-4.55-4.81-6.24-4.81s-4.54,2.89-6.24,4.81v-3.94l-2.99,1.05-3.27,11.22,3.27,8.83h-1.98v3.02h22.42v-3.02h-1.97l3.27-8.83-3.27-11.22-2.99-1.05Zm1.75,12.24c-.51,2.32-2.38,6.52-5.73,7.11-1.79.31-4.2-1.66-5.45-3.98-.25-.47-.95-.22-.87.3.31,2.21,1.64,4.25,2.78,5.19.11.1.19.26.14.4-.05.2-.26.3-.45.26-.04,0-1.18-.32-2.62-1.65-1.74-1.6-4.41-5.34-3.24-8.55.62-1.72,3.53-2.83,6.15-2.76.52,0,.66-.71.18-.91-2.05-.83-4.47-.7-5.85-.17-.14.05-.31.04-.42-.08-.14-.15-.13-.38,0-.52.03-.04.87-.87,2.73-1.46,2.25-.71,6.79-1.18,8.96,1.45,1.16,1.41.67,4.49-.7,6.75-.27.45.28.93.7.61,1.73-1.38,2.83-3.55,3.07-5.02.03-.15.12-.29.28-.32.2-.04.39.07.45.26,0,.04.31,1.19-.11,3.12h0Z"/>
</svg>