<?xml version="1.0" encoding="UTF-8"?>
<svg id="Layer_1" data-name="Layer 1" xmlns="http://www.w3.org/2000/svg" viewBox="0 0 32 32">
  <defs>
    <style>
      .cls-1 {
        fill-rule: evenodd;
        stroke-width: 0px;
      }
    </style>
  </defs>
  <path class="cls-1" d="m21.41,5.31c2.12-.86,4.75.14,6.11,2.16h-.02c2.95,4.38-.31,10.33-4.64,10.6-4.33.26-5.56.93-6.18,3.57-.79,3.32-2.58,4.49-4.93,6.03-.18.12-.37.24-.56.37-.41.26-.47.3-.61.37-.09.05-.22.12-.52.3-.6.34-1.25.48-1.8-.14-.52-.59-.16-1,.19-1.39.06-.07.12-.14.18-.2.86-1.03,1.4-1.83,1.98-2.68.41-.6.83-1.23,1.41-1.99.52-.7.85-1.53,1.19-2.36.11-.28.23-.57.35-.84,1.41-3.21,3.64-5.05,7.27-4.91,1.56.06,3.17-.59,3.71-2.18.21-.64.22-2.01-.72-2.33-.67-.23-1.53-.09-1.65,1.14-.12,1.23-.55,2.08-1.71,2.22-1.19.11-2.02-.51-2.28-1.7-.56-2.65.69-4.97,3.24-6.01Zm-12.24,11.03l2.41,2.42s.03-.07.04-.1h0c.05-.12.09-.24.15-.35,1.02-2.33,2.43-3.99,4.21-4.99l-1.89-1.89,2.04-2.05c.03-.31.08-.61.15-.92.06-.96-.16-2.43-1.81-2.83.11,1.68-1.74,4.13-3.02,5.62l-3.2-3.21-.02-1.79s-2.08-1.34-4.14.09c-1.43,2.06-.09,4.14-.09,4.14l1.79.02,3.2,3.21c-1.48,1.28-3.94,3.13-5.62,3.02.63,2.53,3.73,1.68,3.73,1.68l2.06-2.07Zm13.52,3.69h0s0,0,0,0h0Zm0,0l2.54,2.54.71,5.63-5.62-.71-2.74-2.74c.41-.75.75-1.63.99-2.67.32-1.33.44-1.8,4.11-2.05Z"/>
</svg>