<?xml version="1.0" encoding="UTF-8"?>
<svg id="Layer_1" data-name="Layer 1" xmlns="http://www.w3.org/2000/svg" viewBox="0 0 32 32">
  <defs>
    <style>
      .cls-1 {
        stroke-width: 0px;
      }
    </style>
  </defs>
  <path class="cls-1" d="m28.99,14.33l-3.78-2.07c.68-1.06,1.34-2.53,1.34-4.3,0-3.74-2.94-6.28-3.02-3.19-.06,2.45-1.09,3.9-2.74,4.91l-3.5-6.89c-.53-1.05-2.06-1.05-2.59,0l-3.5,6.89c-1.65-1.01-2.68-2.46-2.74-4.91-.08-3.08-3.02-.55-3.02,3.19,0,1.77.65,3.24,1.33,4.3l-3.78,2.07c-1.32.73-1.32,2.6,0,3.33l4.61,2.52c-.16,1.73-.98,3.19-2.96,4.37-2.68,1.6,1.02,2.84,4.32.98,1.18-.67,2.03-1.56,2.63-2.44l3.11,6.11c.53,1.05,2.06,1.05,2.59,0l3.11-6.11c.6.88,1.45,1.77,2.63,2.44,3.3,1.86,7.01.62,4.32-.98-1.98-1.18-2.79-2.64-2.96-4.37l4.61-2.52c1.32-.73,1.32-2.6,0-3.33h-.02Zm-4.42,2.18c-.46.54-.99,1.03-1.59,1.47-.66.48-1.4.88-2.19,1.21,0-.11.03-.22.03-.33,0-.1-.02-.18-.03-.28-.15-2.48-2.23-4.46-4.8-4.46s-4.65,1.98-4.8,4.46c0,.09-.03.18-.03.28,0,.11.03.22.03.33-.81-.33-1.54-.73-2.2-1.21-.6-.43-1.13-.93-1.59-1.46-.02-.03-.05-.05-.08-.08.27-.33.58-.63.91-.92,1.89-1.69,4.66-2.77,7.76-2.77s5.86,1.07,7.75,2.76c.33.29.63.6.91.93-.02.03-.05.05-.07.08h0Zm-8.58,4.08c-.27,0-.53-.06-.75-.17-.19-.09-.37-.21-.52-.36-.31-.31-.5-.73-.5-1.2,0-.96.79-1.74,1.77-1.74s1.77.78,1.77,1.74c0,.47-.19.89-.5,1.2-.14.15-.33.27-.52.36-.23.11-.49.17-.75.17Z"/>
</svg>