<?xml version="1.0" encoding="UTF-8"?>
<svg id="Layer_1" data-name="Layer 1" xmlns="http://www.w3.org/2000/svg" viewBox="0 0 32 32">
  <defs>
    <style>
      .cls-1 {
        stroke-width: 0px;
      }
    </style>
  </defs>
  <path class="cls-1" d="m29.82,16.13c-.83-3.28-4.04-6.76-7.62-8.89.32-.89.75-1.66,1.32-2.2.58-.57.59-1.52.02-2.1-.57-.58-1.52-.59-2.1-.02-.82.8-1.46,1.85-1.92,3.03-1.23-.45-2.44-.71-3.57-.71s-2.34.26-3.57.71c-.46-1.19-1.11-2.23-1.92-3.03-.58-.57-1.53-.56-2.1.02-.57.58-.56,1.53.02,2.1.56.55.99,1.32,1.32,2.2-3.58,2.12-6.78,5.61-7.62,8.89-.67,2.64.28,4.88,2.61,6.15.76.41,1.54.62,2.29.62.65,0,1.3-.16,1.9-.47.59.95,1.95,2.74,4.18,3.66.8,2.45,1.52,3.91,2.84,3.91s2.03-1.44,2.82-3.88c2.3-.91,3.66-2.76,4.22-3.7,1.31.67,2.78.65,4.22-.14,2.33-1.27,3.29-3.52,2.61-6.15h.03Zm-8.73,4.65s.04.04.05.06l-.14-.06h.09Zm-2.29-6c.17,1.05.41,2.06.74,2.98h-7.14c.33-.93.57-1.94.74-2.98h5.66Zm-2.83-6.58c.85,0,1.82.23,2.8.62-.15.95-.22,1.95-.21,2.94h-5.17c0-.99-.06-1.99-.21-2.94.98-.39,1.94-.62,2.8-.62h-.01Zm-9.83,11.47c-1.14-.62-1.49-1.49-1.16-2.81.57-2.23,2.81-4.76,5.36-6.51.25,3.15-.43,6.7-1.81,8.56-.95,1.29-1.72,1.12-2.4.76h0Zm9.83,3.97c-2.59,0-4.08-2.09-4.53-2.86h9.02c-.39.69-1.83,2.86-4.49,2.86Zm9.83-3.97c-.68.37-1.44.53-2.4-.76-1.38-1.86-2.05-5.41-1.81-8.56,2.55,1.75,4.79,4.27,5.36,6.51.34,1.33-.02,2.2-1.16,2.81h.01Z"/>
</svg>