<?xml version="1.0" encoding="UTF-8"?>
<svg id="Layer_1" data-name="Layer 1" xmlns="http://www.w3.org/2000/svg" viewBox="0 0 32 32">
  <defs>
    <style>
      .cls-1 {
        fill-rule: evenodd;
        stroke-width: 0px;
      }
    </style>
  </defs>
  <path class="cls-1" d="m12.12,21.78c-.47.47-1.12.74-1.79.74h-2.55c-.67,0-1.32-.27-1.79-.74l-1.17-1.17-1.06-1.06c-.47-.47-.74-1.12-.74-1.79v-1.74c0-3.1,1.1-5.96,2.91-8.2,2.39-2.94,6.02-4.81,10.1-4.81,3.04,0,5.84,1.06,8.05,2.81.81.63,1.53,1.36,2.17,2.17-2.2-.2-8.69-.33-10.61,4.21-.17.41-.54,1.52-.54,2.9v2.67c0,.67-.27,1.32-.74,1.79l-2.23,2.23Zm-7.25-6.68v2.79h2.79v2.79h2.79v-2.79h2.79v-2.79h-2.79v-2.79h-2.79v2.79h-2.79Zm12.05,1.19c.39-1.32,3.89-5.85,6.08-5.85,1.87,0,4.68,3.27,5.71,5.07.21.37.33.8.31,1.23-.15,2.83-1.2,5.42-2.88,7.48-2.39,2.94-6.02,4.81-10.1,4.81-3.04,0-5.84-1.05-8.06-2.81-.35-.29-.7-.59-1.02-.9,1.23.08,7.65.2,9.46-5.49.17-.55.26-1.48.34-2.26.06-.56.1-1.05.17-1.28Zm7.47,1.6l2.83-1.06c.31-.12.31-.56,0-.67l-2.83-1.06-1.06-2.83c-.12-.31-.56-.31-.67,0l-1.06,2.83-2.83,1.06c-.31.12-.31.56,0,.67l2.83,1.06,1.06,2.83c.12.31.56.31.67,0l1.06-2.83Z"/>
</svg>