<?xml version="1.0" encoding="UTF-8"?>
<svg id="Layer_1" data-name="Layer 1" xmlns="http://www.w3.org/2000/svg" viewBox="0 0 32 32">
  <defs>
    <style>
      .cls-1 {
        fill-rule: evenodd;
        stroke-width: 0px;
      }
    </style>
  </defs>
  <path class="cls-1" d="m20.08,7.4c.05,2.81,2.26,5.21,4.7,6.12h-.02c1.74.66,2.73.88,2.75,1.17.02.3-1,.66-3.31,1.64-1.1.46-1.59.16-2.22-.22-.06-.04-.13-.08-.2-.12-1.85-1.09-4.31-3.04-5.48-6.11.14-.28.3-.61.48-.96.4-.81.88-1.78,1.34-2.7.25-.49.48-.96.68-1.36.57-1.12,1.88-1.65,3.06-1.21.17.06.35.13.55.2.3.11.64.24,1.01.37,2.67.96,6.42,4.3,3.52,8.47-2.57-.69-5.26-2.35-5.33-5.21,2.03-.07,3.61,1.23,4.33,2.73-.35-1.71-1.42-3.79-3.21-4.22-2.51-.6-2.67-.06-2.65,1.4Zm-5.93,5.18l-.94.94c.82,2,2.59,4.43,2.59,4.43-1.44-.01-2.94-1.51-3.92-3.11l-.61.61c-.27.27-.34.69-.16,1.02,1.21,2.18,3.14,3.7,4.78,4.67.31.18.7.14.98-.09l3.02-2.53c.44-.37.41-1.07-.08-1.39-1.48-.99-3.12-2.44-4.34-4.42-.29-.47-.94-.54-1.34-.15h.02Zm-4.86,4.72l-4.15,2.78c-1.32.89-1.56,2.84-.36,3.88.53.45.81,1.02.95,1.53.18.66.95.94,1.51.56l1.58-1.05-.66,1.99c-.18.55.14,1.15.71,1.3l1.12.28c1.09.27,2.22-.21,2.77-1.2l2.43-4.28c-1.99-1.12-4.41-2.98-5.9-5.78h0Z"/>
</svg>