<?xml version="1.0" encoding="UTF-8"?>
<svg id="Layer_1" data-name="Layer 1" xmlns="http://www.w3.org/2000/svg" viewBox="0 0 32 32">
  <defs>
    <style>
      .cls-1 {
        fill-rule: evenodd;
        stroke-width: 0px;
      }
    </style>
  </defs>
  <path class="cls-1" d="m19.85,4l4.38,4.34c-2.28,1.77-5.13,2.82-8.24,2.82s-5.97-1.05-8.24-2.81l4.39-4.35h7.71ZM2.52,13.58l3.65-3.63,4.57,6.45-5.43,5.47-2.79-8.29Zm4.17,9.63l8.35,6.79v-7.52l-3.17-4.5-5.18,5.22Zm14.59-6.81l4.56-6.45,3.65,3.63-2.79,8.29-5.42-5.47Zm-4.31,6.08v7.52l8.36-6.79-5.18-5.22-3.18,4.5Zm-7.14-10.69c1.9.83,3.98,1.3,6.18,1.3s4.28-.47,6.18-1.3l-6.18,8.72-6.18-8.72Z"/>
</svg>