<?xml version="1.0" encoding="UTF-8"?>
<svg id="Layer_1" data-name="Layer 1" xmlns="http://www.w3.org/2000/svg" viewBox="0 0 32 32">
  <defs>
    <style>
      .cls-1 {
        stroke-width: 0px;
      }
    </style>
  </defs>
  <path class="cls-1" d="m25.98,10.13l-2.67-2.5c.89,3.13-2.41,3.69-3.09,2.44-1.26-2.29,1.6-3.48,1.6-3.48-3.07-1.99-8.05-3.44-11.97-2.03,2.21,1.01,8.13,2.38,6.36,4.82-1.4,1.92-4.23-2.26-4.23-2.26,0,0-.01,4.01,3.37,5.74.83.43,1.78.58,2.71.44,1.77-.28,3.66.32,4.97,1.79,1.97,2.19,1.94,5.61-.05,7.77-2.17,2.36-5.8,2.39-8.02.12-1.34-1.37-1.86-3.27-1.55-5.05.31-1.77-.3-3.59-1.7-4.68-.86-.67-1.66-.92-1.66-.92,0,0,1.75,3.45-.61,3.13-2.36-.32-1.69-2.7-.71-6.18,1.14-4.06-4.6-4.22-4.6-4.22,2.55,2.37.16,4.95,0,8.04-.13,2.47,2.92,5.28,2.92,5.28.94-3.29,5.5,1.28,4.48,2.9-1.02,1.62-4.14-.91-4.14-.91,0,0,.46,2.35,3.35,5.31,4.43,4.53,11.02,4.3,15.23,0,4.21-4.3,4.21-11.26,0-15.56h0Z"/>
</svg>