<?xml version="1.0" encoding="UTF-8"?>
<svg id="Layer_1" data-name="Layer 1" xmlns="http://www.w3.org/2000/svg" viewBox="0 0 32 32">
  <defs>
    <style>
      .cls-1 {
        stroke-width: 0px;
      }
    </style>
  </defs>
  <path class="cls-1" d="m25.46,17.76s3.54-1.75,3.54-6.33c0,0-2.22,1.73-4.46,2.14.76-1,1.56-2.27,1.93-3.61,0,0-1.93-2.85-5.4-4.25l.52-3.71c-1.66,1.28-2.9,3.03-3.56,5.02l3.36,2.72-5.4,4.4-5.4-4.4,3.36-2.72c-.66-1.99-1.9-3.73-3.56-5.02l.52,3.71c-3.47,1.41-5.4,4.25-5.4,4.25.37,1.34,1.17,2.61,1.93,3.61-2.24-.41-4.46-2.14-4.46-2.14,0,4.58,3.54,6.33,3.54,6.33-1.78,0-2.49,1.43-2.49,1.43,5.28,3.04,7.66,6.37,7.95,6.78v2.03l2,2h4l2-2v-2.02c.28-.41,2.67-3.74,7.95-6.78,0,0-.71-1.43-2.49-1.43h.02Zm-15.56-1.2s4.94-.69,5.04,3c.03,1.3-.52,2.47-2.28,2.35-1.76-.11-2.86-2.51-2.76-5.36h0Zm9.45,5.36c-1.76.11-2.31-1.05-2.28-2.35.1-3.69,5.04-3,5.04-3,.1,2.85-1,5.24-2.76,5.36h0Z"/>
</svg>