<?xml version="1.0" encoding="UTF-8"?>
<svg id="Layer_1" data-name="Layer 1" xmlns="http://www.w3.org/2000/svg" viewBox="0 0 32 32">
  <defs>
    <style>
      .cls-1 {
        fill-rule: evenodd;
        stroke-width: 0px;
      }
    </style>
  </defs>
  <path class="cls-1" d="m16,9.9c1.5-2.91,4.52-4.9,8.01-4.9,2.3,0,4.4.87,5.99,2.29-.16,4.27-3.68,7.7-7.99,7.7-.66,0-1.3-.1-1.92-.25-.05-.25-.08-.49-.08-.75,0-2.21,1.79-4,4-4l.02,2.63c1.62-.58,2.92-1.83,3.55-3.43-1-.74-2.23-1.2-3.57-1.2-3.32,0-6.01,2.69-6.01,6v3l-2,3-2-3v-3c0-3.31-2.69-6-6.01-6-1.34,0-2.57.46-3.57,1.2.63,1.59,1.93,2.85,3.55,3.43l.02-2.63c2.2,0,4,1.8,4,4,0,.26-.03.51-.08.75-.62.16-1.26.25-1.92.25-4.31,0-7.83-3.43-7.99-7.7,1.59-1.42,3.69-2.29,5.99-2.29,3.49,0,6.51,1.99,8.01,4.9Zm5.01,6.09l1.95,1.56h-.01c1.65,1.32,1.84,3.76.42,5.32l-4.46,4.9c-1.54,1.69-4.23,1.62-5.68-.15l-4.15-5.07c-1.19-1.46-1.08-3.58.25-4.91l1.66-1.65,5.01,8,5.01-8Z"/>
</svg>