<?xml version="1.0" encoding="UTF-8"?>
<svg id="Layer_1" data-name="Layer 1" xmlns="http://www.w3.org/2000/svg" viewBox="0 0 32 32">
  <defs>
    <style>
      .cls-1 {
        fill-rule: evenodd;
        stroke-width: 0px;
      }
    </style>
  </defs>
  <path class="cls-1" d="m20.36,4.33c0,1.35-1.1,2.45-2.45,2.45s-2.45-1.1-2.45-2.45,1.1-2.45,2.45-2.45,2.45,1.1,2.45,2.45Zm-8.03,3.88c.79,0,1.43-.64,1.43-1.43s-.64-1.43-1.43-1.43-1.43.64-1.43,1.43.64,1.43,1.43,1.43Zm15.25,12.71c0-1.96-1.38-4.29-3.58-6.1.79-.56,1.24-1.22,1.24-1.92,0-2.12-4.15-3.84-9.26-3.84s-9.26,1.72-9.26,3.84c0,.7.45,1.35,1.24,1.92-2.2,1.8-3.58,4.14-3.58,6.1s1.51,3.9,3.9,5.17l-.28,2.91h3l.55-1.69c1.36.34,2.86.52,4.42.52s3.06-.19,4.42-.52l.6,1.69h3l-.33-2.91c2.4-1.27,3.9-3.11,3.9-5.17Zm-5.43-7.88c-.27.12-.6.25-.98.38-.31.1-.65.19-1,.27h0c-1.95.45-2.81,1.85-1.16,4.86,1.65,3.01,1.16,5.3-.98,5.51-2.03.2-2.59-2.09-2.07-4.8.73-3.82-2.02-3.04-1.8-.96.22,2.08-.12,2.63-1.12,2.84-1.65.08-1.33-1.47-.97-3.21.38-1.81.8-3.82-.93-4.4h.01,0c-.13-.04-.27-.08-.39-.12-.39-.12-.71-.25-.98-.38-.38-.17-.38-.76,0-.94.27-.12.6-.25.98-.38,1.45-.47,3.29-.73,5.19-.73s3.74.26,5.19.73c.39.12.71.25.98.38.38.17.38.76,0,.94Z"/>
</svg>