<?xml version="1.0" encoding="UTF-8"?>
<svg id="Layer_1" data-name="Layer 1" xmlns="http://www.w3.org/2000/svg" viewBox="0 0 32 32">
  <defs>
    <style>
      .cls-1 {
        fill-rule: evenodd;
        stroke-width: 0px;
      }
    </style>
  </defs>
  <path class="cls-1" d="m27.34,16.28l-2.77,7.38h0s4.05-.53,4.05-.53l-7.67,7-12.95-5.02h7.02s-6.47-3.59-9.64-7.72c-2.2-2.87-3.1-5.48-1.73-6.83,1.86-1.85,5.91-.88,7.98-.38.18.04.35.08.5.12l.4,3.15-.44-.11c-2.49-.66-7.21.7,5.91,10.04-.52-2.11-2.73-4.22-2.73-4.22L13.11,2l9.27,18.64,4.96-4.36Zm-7.2-4.65c1.78.07,2.97-.24,2.73-1.29-.67-2.86-6.2-6.73-6.2-6.73,0,0,12.94,5.2,10.67,9.12-.81,1.41-3.12,1.86-5.71,1.88l-1.48-2.98Z"/>
</svg>