<?xml version="1.0" encoding="UTF-8"?>
<svg id="Layer_1" data-name="Layer 1" xmlns="http://www.w3.org/2000/svg" viewBox="0 0 32 32">
  <defs>
    <style>
      .cls-1 {
        fill-rule: evenodd;
        stroke-width: 0px;
      }
    </style>
  </defs>
  <path class="cls-1" d="m5.83,12.77c1.24-3.11,1.23-6.31.17-8.77l6,6c-2.39,1.4-4,4.01-4,7s1.61,5.6,4,7l-2,2L2,18c1.59-1.24,2.96-3.04,3.83-5.24h0Zm12.17,2.23l-2-11-2,11-5,2,5,2,2,11,2-11,5-2-5-2Zm8-11c-1.06,2.46-1.07,5.66.17,8.77h0c.87,2.19,2.24,3.99,3.83,5.23l-8,8-2-2c2.39-1.4,4-4.01,4-7s-1.61-5.6-4-7l6-6Z"/>
</svg>