<?xml version="1.0" encoding="UTF-8"?>
<svg id="Layer_1" data-name="Layer 1" xmlns="http://www.w3.org/2000/svg" viewBox="0 0 32 32">
  <defs>
    <style>
      .cls-1 {
        stroke-width: 0px;
      }
    </style>
  </defs>
  <path class="cls-1" d="m28,7.88l-9.27-2.88-2.73,3.82-2.73-3.82-9.27,2.88,2.19,9.6,4.62.49-1.89,4.31.76.73,6.32,6,7.08-6.72-1.89-4.31,4.62-.49,2.19-9.6h0Zm-5.14,6.1l-3.57.27.79,1.39-1.43,2.52h-1.57l1.55,3.28-2.63,2.49-2.63-2.49,1.55-3.28h-1.57l-1.43-2.51.79-1.39-3.57-.27-.81-3.56,3.44-1.07,2.02,3.01.79-1.38h2.86l.79,1.38,2.02-3.01,3.44,1.07-.81,3.56h0Z"/>
</svg>