<?xml version="1.0" encoding="UTF-8"?>
<svg id="Layer_1" data-name="Layer 1" xmlns="http://www.w3.org/2000/svg" viewBox="0 0 32 32">
  <defs>
    <style>
      .cls-1 {
        fill-rule: evenodd;
        stroke-width: 0px;
      }
    </style>
  </defs>
  <path class="cls-1" d="m15.03,6.27c.14,2.08,1.86,3.73,3.97,3.73s4-1.79,4-4-1.79-4-4-4c-7.61,0-11,7.83-11,13s3.1,10.8,8,14c2.13-.58,4.12-2.05,5.38-4.24,1.27-2.19,1.54-4.65.98-6.78-.86.23-1.69.61-2.46,1.12-.36-2.81-1.8-5.31-3.9-7.1-2.27,1.93-3.75,4.68-3.96,7.76-.66-1.55-1.04-3.18-1.04-4.76,0-2.3,1.09-6.59,4.03-8.73Zm14.73,10.73c-1.85.52-3.57,1.86-4.67,3.84-1.1,1.99-1.34,4.22-.85,6.16,1.85-.52,3.57-1.86,4.67-3.85,1.1-1.99,1.34-4.22.85-6.15ZM3.09,23.15c-1.1-1.98-1.34-4.21-.85-6.15,1.85.52,3.57,1.85,4.67,3.84,1.1,1.99,1.34,4.22.85,6.16-1.85-.53-3.57-1.86-4.67-3.85Z"/>
</svg>