<?xml version="1.0" encoding="UTF-8"?>
<svg id="Layer_1" data-name="Layer 1" xmlns="http://www.w3.org/2000/svg" viewBox="0 0 32 32">
  <defs>
    <style>
      .cls-1 {
        fill-rule: evenodd;
        stroke-width: 0px;
      }
    </style>
  </defs>
  <path class="cls-1" d="m23,17l-3,2-2-1,1-13-3-3-3,3,1,13-2,1-3-2,2,5h4l-2,5,3,3,3-3-2-5h4l2-5Zm1-8c0-1.1-.9-2-2-2s-2,.9-2,2,1,6,1,6c0,0,3-4,3-6Zm1,.5c0-1.38,1.12-2.5,2.5-2.5s2.5,1.12,2.5,2.5c0,11.49-7,18.5-7,18.5,0,0,2-5.38,2-18.5Zm-13-.5c0-1.1-.9-2-2-2s-2,.9-2,2c0,2,3,6,3,6,0,0,1-4.9,1-6Zm-10,.5c0-1.38,1.12-2.5,2.5-2.5s2.5,1.12,2.5,2.5c0,13.12,2,18.5,2,18.5,0,0-7-7.01-7-18.5Z"/>
</svg>