<?xml version="1.0" encoding="UTF-8"?>
<svg id="Layer_1" data-name="Layer 1" xmlns="http://www.w3.org/2000/svg" viewBox="0 0 32 32">
  <defs>
    <style>
      .cls-1 {
        fill-rule: evenodd;
        stroke-width: 0px;
      }
    </style>
  </defs>
  <path class="cls-1" d="m22,10.93c0,1.93-.9,3.64-2.3,4.74,3.69,1.48,6.3,5.1,6.3,9.33h-2c0-4.09-3.06-7.47-7-7.97v-2.22c1.72-.45,3-2.01,3-3.88s-1.28-3.43-3-3.88v-2.06c2.84.48,5,2.95,5,5.94Zm-9.7,4.75c-1.4-1.11-2.3-2.82-2.3-4.74,0-2.99,2.16-5.46,5-5.94v20H6c0-4.23,2.61-7.85,6.3-9.32Z"/>
</svg>