<?xml version="1.0" encoding="UTF-8"?>
<svg id="Layer_1" data-name="Layer 1" xmlns="http://www.w3.org/2000/svg" viewBox="0 0 32 32">
  <defs>
    <style>
      .cls-1 {
        fill-rule: evenodd;
        stroke-width: 0px;
      }
    </style>
  </defs>
  <path class="cls-1" d="m27.96,7.05s.02,0,.02,0h-.02s0,0,0,0Zm0,0c-.31.08-4.35,1.05-7.96-2.05,0,0-1.12,2.01-3.99,2.01s-4-2.01-4-2.01c-3.76,3.23-7.98,2.04-7.98,2.04-.42,5.78,3.83,9.33,3.83,9.33-.31-2.13.07-4.42,1.15-5.36l2,2.39,2.78-3.35,2.22,3.35,2.22-3.35,2.78,3.35,2-2.39c1.08.94,1.46,3.23,1.15,5.36,0,0,4.24-3.54,3.83-9.32Zm-13.28,7.94c-4.06,4.18.25,6.65.25,6.65h.02c-2.25-6.96,4.82-8.17,8.06-5.88-1.31.98-2,2.29-2,6.31s-3.73,8.88-8.79,7.78c-4.82-1.04-4.27-5.52-4.27-5.52,1.68,3.44,5.98,2.77,6.67,2.36,0,0-1.25.16-3.32-1.49,0-.1,0-.2.01-.3.03-.65.08-1.48-1.08-3.03-3.6-4.79,1.66-8.77,4.44-6.9Z"/>
</svg>