<?xml version="1.0" encoding="UTF-8"?>
<svg id="Layer_1" data-name="Layer 1" xmlns="http://www.w3.org/2000/svg" viewBox="0 0 32 32">
  <defs>
    <style>
      .cls-1 {
        stroke-width: 0px;
      }
    </style>
  </defs>
  <path class="cls-1" d="m29.85,12.46c-1.4.14-2.67,1.12-2.67,1.12,0,0,2.37-3.34,1.02-7.83l-7.32,4.32c1.38.7,2.25,1.69,2.25,2.79,0,.7-.36,1.34-.95,1.91-1.47-1.79-3.7-2.92-6.18-2.92s-4.71,1.14-6.17,2.92c-.59-.56-.95-1.21-.95-1.91,0-1.11.87-2.1,2.25-2.79L3.79,5.75c-1.36,4.48,1.02,7.83,1.02,7.83,0,0-1.26-.99-2.67-1.12-.29,3.81,3.1,5.27,3.65,5.21-.21.11-.87.55-1.32,1.92.78.93,3.16.95,3.54.94.31,4.18,3.77,7.49,7.99,7.49s7.69-3.3,8-7.49c.39,0,2.76-.02,3.54-.94-.46-1.36-1.11-1.8-1.32-1.92.54.07,3.93-1.4,3.65-5.21h-.01Zm-10.58,12.06l-4.76-2.46v-7.23l1.49-1.5,1.49,1.5v5.4l3.14,1.62.64,2.02-2,.65Z"/>
</svg>