<?xml version="1.0" encoding="UTF-8"?>
<svg id="Layer_1" data-name="Layer 1" xmlns="http://www.w3.org/2000/svg" viewBox="0 0 32 32">
  <defs>
    <style>
      .cls-1 {
        stroke-width: 0px;
      }
    </style>
  </defs>
  <path class="cls-1" d="m30,18s-1.31-1.28-3.38-1.79c3.24-5.54.32-11.45-5.62-13.21,0,2.78-.48,4.46-2.02,6.07-1.9,1.98-2.97,4.61-2.98,7.36-.02-2.74-1.09-5.37-2.98-7.36-1.54-1.61-2.02-3.29-2.02-6.07-5.94,1.77-8.86,7.67-5.62,13.21-2.07.51-3.38,1.79-3.38,1.79,1.53,3.52,3.78,5.69,8.03,5.97l-3.03,3.03s2,2,4,2c4,0,5-4.99,5-5,0,0,1,5,5,5,2,0,4-2,4-2l-3.03-3.03c4.26-.28,6.51-2.45,8.03-5.97Zm-19,4c-3.1,0-5.02-.97-6.44-3.37.55-.29,1.28-.55,2.12-.61,1.21,1.41,2.86,2.76,5,3.98h-.68Zm3.24-.69s-6.31-3.5-4.66-9.81c5.01,2.2,4.73,7.69,4.66,9.81Zm3.52,0c-.06-2.12-.35-7.62,4.66-9.81,1.64,6.31-4.66,9.81-4.66,9.81Zm3.24.69h-.68c2.15-1.22,3.8-2.57,5-3.98.84.06,1.57.32,2.12.61-1.42,2.4-3.34,3.37-6.44,3.37Z"/>
</svg>