<?xml version="1.0" encoding="UTF-8"?>
<svg id="Layer_1" data-name="Layer 1" xmlns="http://www.w3.org/2000/svg" viewBox="0 0 32 32">
  <defs>
    <style>
      .cls-1 {
        fill-rule: evenodd;
        stroke-width: 0px;
      }
    </style>
  </defs>
  <path class="cls-1" d="m12.55,8.29c1.38-1.39,1.2-3.76-.45-4.81-.02,0-.04-.02-.05-.03h0c-.05-.03-.1-.06-.15-.09-1.53-.82-3.44-.17-4.28,1.35l-3.02,5.44,1.96-.32-3.55,8.08,9.55-9.61Zm3.25,16.15h0s8.21-8.25,8.21-8.25c2.26-2.27,2.26-5.93,0-8.2-2.26-2.26-5.93-2.26-8.2,0l-8.24,8.23,3.59-.06-5.71,10.4,10.4-5.71-.05,3.58h-.01s0,0,0,0Zm12.72-4.53c.05.07.08.13.12.2h0c.81,1.53.17,3.44-1.35,4.28l-5.44,3.02.32-1.97-8.08,3.57,9.61-9.55c1.39-1.38,3.75-1.21,4.8.45Z"/>
</svg>