<?xml version="1.0" encoding="UTF-8"?>
<svg id="Layer_1" data-name="Layer 1" xmlns="http://www.w3.org/2000/svg" viewBox="0 0 32 32">
  <defs>
    <style>
      .cls-1 {
        stroke-width: 0px;
      }
    </style>
  </defs>
  <path class="cls-1" d="m22.98,18.01c0,4.83-7.89,4.28-11,3,8.86,0,9-2.2,9-3h.02l-2.89-2.89c-1.3-1.3-1.78-3.21-1.25-4.96l1.12-5.15c.15-.67-.55-1.21-1.16-.9-1.18.59-2.14,1.55-2.73,2.73l-3.54,7.06c-.37.73-.56,1.54-.56,2.37v1.75c0,1.18-.66,2.26-1.71,2.78-1.45.72-3.29,1.82-3.29,2.71,0,1.47,2.48,2.51,10,2.51,6.29,0,12-3.61,12-5.99,0-1.72-2.53-2.01-4.02-1.99v-.02Z"/>
</svg>