<?xml version="1.0" encoding="UTF-8"?>
<svg id="Layer_1" data-name="Layer 1" xmlns="http://www.w3.org/2000/svg" viewBox="0 0 32 32">
  <defs>
    <style>
      .cls-1 {
        fill-rule: evenodd;
        stroke-width: 0px;
      }
    </style>
  </defs>
  <path class="cls-1" d="m18,5c0,1.1-.9,2-2,2s-2-.9-2-2,.9-2,2-2,2,.9,2,2Zm7,4.5v3.54c1.86,1.06,3,2.44,3,3.96v6c0,3.31-5.37,6-12,6s-12-2.69-12-6v-6c0-1.52,1.14-2.9,3-3.96v-3.54c0-1.78,2.06-3.31,5.05-4.04.23,1.99,1.91,3.54,3.95,3.54s3.72-1.55,3.95-3.54c2.99.73,5.05,2.26,5.05,4.04Zm-9,4.5c-2.84,0-5.35-.66-7-1.69v2.19c0,.73,2.45,2.5,7,2.5s7-1.77,7-2.5v-2.19c-1.65,1.03-4.16,1.69-7,1.69Zm0,12c5.49,0,9-2.37,9-4h0v-2.39c-.66.22-1.01.55-1.41.96-.55.57-1.24,1.28-2.75,1.52-1.55.19-2.38-.31-3.04-.71h-.02c-.52-.33-.94-.58-1.76-.55-.86-.02-1.28.23-1.81.55-.57.34-1.26.75-2.39.75-.19,0-.4,0-.62-.04-1.54-.24-2.23-.95-2.78-1.52-.4-.41-.74-.74-1.41-.96v2.39c0,1.63,3.51,4,9,4Z"/>
</svg>