<?xml version="1.0" encoding="UTF-8"?>
<svg id="Layer_1" data-name="Layer 1" xmlns="http://www.w3.org/2000/svg" viewBox="0 0 32 32">
  <defs>
    <style>
      .cls-1 {
        fill-rule: evenodd;
        stroke-width: 0px;
      }
    </style>
  </defs>
  <path class="cls-1" d="m10.78,14l1.66-4.56,4.57-1.66v-2.78l2.35-2.35c-4.37-1.38-9.02-.57-12.15,2.56-3.13,3.13-3.94,7.78-2.57,12.14l3.36-3.35h2.78Zm18.58-1.35l-2.35,2.35h-2.78l-1.66,4.56-4.56,1.66v2.77l-3.35,3.36c4.36,1.37,9.01.57,12.14-2.56,3.13-3.13,3.93-7.78,2.56-12.15h0Zm-4.35-5.64l-4,11h0s-7.14,2.59-7.14,2.59l-3.4,4.76c-.29.41-.73.7-1.23.8l-4.23.85.84-4.23c.1-.5.39-.94.8-1.24l4.76-3.39,2.6-7.14,11-4Zm-5.02,5.01l-3.64,1.33-1.33,3.64,3.64-1.33,1.33-3.64Z"/>
</svg>